<svg id="Capa_1" enable-background="new 0 0 510 510" height="auto" viewBox="0 0 510 510" width="auto" fill="#fff"
    xmlns="http://www.w3.org/2000/svg">
    <path
        d="m495.152 178.23c-52.648-50.605-167.165-152.806-240.152-152.806-72.993 0-187.513 102.211-240.154 152.808-18.058 17.365-19.864 45.104-4.2 64.523l51.064 63.319v76.074c0 .915.103 1.816.265 2.701l-.024.004c7.39 40.342 60.665 99.723 193.048 99.723 130.055 0 185.382-57.868 193.048-99.723l-.023-.004c.162-.885.265-1.786.265-2.701v-76.074l51.064-63.318c15.665-19.42 13.859-47.16-4.201-64.526zm-76.865 186.529c-133.162-18.98-193.345-18.99-326.575 0v-51.341c116.87-19.136 209.237-19.195 326.575.002zm-163.287 89.815c-56.103 0-128.342-12.153-157.096-60.372 129.444-18.2 184.218-18.268 314.191 0-28.743 48.208-100.966 60.372-157.095 60.372zm221.001-230.652-48.827 60.544c-119.171-20.235-221.616-20.839-344.348 0l-48.827-60.544c-5.918-7.337-5.228-17.457 1.639-24.06 94.094-90.442 176.098-144.436 219.362-144.436s125.268 53.994 219.36 144.432c6.869 6.605 7.559 16.725 1.641 24.064z" />
    <path
        d="m297.959 125.063h-85.918c-8.285 0-15.001 6.716-15.001 15.001v40.434c0 37.949 31.695 48.978 51.172 58.861 4.264 2.164 9.31 2.167 13.577 0 19.602-9.945 51.172-21.225 51.172-58.861v-40.434c-.001-8.285-6.717-15.001-15.002-15.001zm-15.001 55.434c0 13.651-7.318 18.84-27.971 28.761-20.323-9.79-27.945-14.728-27.945-28.761v-25.433h55.916z" />
    </svg>