<svg id="Capa_1" enable-background="new 0 0 510 510" height="auto" viewBox="0 0 510 510" width="auto" xmlns="http://www.w3.org/2000/svg" fill="#fff">
    <path
        d="m75.275 410.124c31.424 56.739 114.902 71.247 179.723 71.247 64.864 0 148.309-14.526 179.723-71.247-148.14-21.047-211.24-21.056-359.446 0z" />
    <path
        d="m503.049 191.62c-106.17-102.05-198.89-162.99-248.05-162.99s-141.89 60.94-248.05 162.99c-8.44 8.12-9.29 20.56-2.01 29.59l55.62 68.97c135.34-23.13 251.33-23.5 388.88 0l55.62-68.97c7.27-9.001 6.45-21.441-2.01-29.59zm-184.72-20.431c0 40.99-33.29 52.77-56.54 64.54-4.25 2.17-9.33 2.17-13.58 0-21.71-10.99-56.54-23.18-56.54-64.54v-45.48c0-8.28 6.72-14.99 15-14.99h96.66c8.28 0 15 6.71 15 14.99z" />
    <path
        d="m221.669 171.192c0 17.678 11.112 23.83 33.319 34.439 19.549-9.768 33.339-15.448 33.339-34.439v-30.479h-66.658z" />
    <path
        d="m69.445 319.127v2.36 58.158.98c149.187-21.422 218.092-21.972 371.106 0v-.98-58.158-2.36c-136.359-22.519-241.414-21.417-371.106 0z" />
    </svg>